<!-- Generated by IcoMoon.io -->
<svg version="1.1" xmlns="http://www.w3.org/2000/svg" width="32" height="32" viewBox="0 0 32 32">
<title>lock</title>
<path d="M16.010 4c-3.799 0-6.857 3.058-6.857 6.857v1.143c-1.259 0-2.286 1.027-2.286 2.286v11.428c0 1.259 1.027 2.286 2.286 2.286h13.714c1.259 0 2.286-1.027 2.286-2.286v-11.428c0-1.259-1.027-2.286-2.286-2.286v-1.143c0-3.799-3.058-6.857-6.857-6.857zM16.010 6.285c2.603 0 4.571 1.969 4.571 4.571v1.143h-9.143v-1.143c0-2.603 1.969-4.571 4.571-4.571h0.001zM16.010 17.714c1.259 0 2.286 1.027 2.286 2.286s-1.027 2.286-2.286 2.286c-1.259 0-2.286-1.027-2.286-2.286s1.027-2.286 2.286-2.286z"></path>
</svg>
